<svg width="65" height="64" viewBox="0 0 65 64" fill="none" xmlns="http://www.w3.org/2000/svg">
<path d="M6 37.5098C6 38.3398 5.33 39.0098 4.5 39.0098C3.67 39.0098 2 38.3398 2 37.5098C2 37.0898 2.42 36.7198 2.94 36.4498C3.46 36.1798 4.08 36.0098 4.5 36.0098C5.33 36.0098 6 36.6798 6 37.5098Z" fill="#65B590"/>
<path d="M10 31.5C10 31.09 9.58 30.71 9.06 30.439C8.54 30.17 7.92 30 7.5 30C6.67 30 6 30.67 6 31.5C6 32.33 6.67 33 7.5 33C8.33 33 10 32.33 10 31.5ZM13 37.51V47.51V53H6V47.51V41.5C6 42.33 6.67 43 7.5 43C8.33 43 10 42.33 10 41.5C10 41.09 9.58 40.71 9.06 40.439C8.54 40.17 7.92 40 7.5 40C6.67 40 6 40.67 6 41.5V37.51C6 36.68 5.33 36.01 4.5 36.01C4.08 36.01 3.46 36.18 2.94 36.45C2.42 36.72 2 37.09 2 37.51V25H13V37.51Z" fill="#DEF9EC"/>
<path d="M9.06 40.439C9.58 40.71 10 41.09 10 41.5C10 42.33 8.33 43 7.5 43C6.67 43 6 42.33 6 41.5C6 40.67 6.67 40 7.5 40C7.92 40 8.54 40.17 9.06 40.439ZM4.5 46.01C5.33 46.01 6 46.68 6 47.51C6 48.34 5.33 49.01 4.5 49.01C3.67 49.01 2 48.34 2 47.51C2 47.09 2.42 46.72 2.94 46.45C3.46 46.18 4.08 46.01 4.5 46.01Z" fill="#65B590"/>
<path d="M6 47.5098V52.9998H2V47.5098C2 48.3398 3.67 49.0098 4.5 49.0098C5.33 49.0098 6 48.3398 6 47.5098Z" fill="#DEF9EC"/>
<path d="M9.06 30.439C9.58 30.71 10 31.09 10 31.5C10 32.33 8.33 33 7.5 33C6.67 33 6 32.33 6 31.5C6 30.67 6.67 30 7.5 30C7.92 30 8.54 30.17 9.06 30.439Z" fill="#65B590"/>
<path d="M6 41.4998V47.5098C6 46.6798 5.33 46.0098 4.5 46.0098C4.08 46.0098 3.46 46.1798 2.94 46.4498C2.42 46.7198 2 47.0898 2 47.5098V37.5098C2 38.3398 3.67 39.0098 4.5 39.0098C5.33 39.0098 6 38.3398 6 37.5098V41.4998Z" fill="#DEF9EC"/>
<path d="M38 11L24 25H13L27 11H38Z" fill="#DEF9EC"/>
<path d="M28 41.4998V47.5098C28 46.6798 27.33 46.0098 26.5 46.0098C26.08 46.0098 25.46 46.1798 24.94 46.4498C24.419 46.7198 24 47.0898 24 47.5098V37.5098C24 38.3398 25.67 39.0098 26.5 39.0098C27.33 39.0098 28 38.3398 28 37.5098V41.4998ZM28 47.5098V52.9998H24V47.5098C24 48.3398 25.67 49.0098 26.5 49.0098C27.33 49.0098 28 48.3398 28 47.5098Z" fill="#DEF9EC"/>
<path d="M55 25H43V53H55V25Z" fill="white"/>
<path d="M20.06 40.4388C20.581 40.7098 21 41.0888 21 41.4998C21 42.3298 19.33 42.9998 18.5 42.9998C17.67 42.9998 17 42.3298 17 41.4998C17 40.6698 17.67 39.9998 18.5 39.9998C18.92 39.9998 19.54 40.1698 20.06 40.4388ZM17 37.5098C17 38.3398 16.33 39.0098 15.5 39.0098C14.67 39.0098 13 38.3398 13 37.5098C13 37.0898 13.42 36.7198 13.94 36.4498C14.46 36.1788 15.08 36.0098 15.5 36.0098C16.33 36.0098 17 36.6798 17 37.5098ZM28 37.5098C28 38.3398 27.33 39.0098 26.5 39.0098C25.67 39.0098 24 38.3398 24 37.5098C24 37.0898 24.42 36.7198 24.94 36.4498C25.46 36.1788 26.08 36.0098 26.5 36.0098C27.33 36.0098 28 36.6798 28 37.5098ZM15.5 46.0098C16.33 46.0098 17 46.6798 17 47.5098C17 48.3398 16.33 49.0098 15.5 49.0098C14.67 49.0098 13 48.3398 13 47.5098C13 47.0898 13.42 46.7198 13.94 46.4498C14.46 46.1798 15.08 46.0098 15.5 46.0098Z" fill="#65B590"/>
<path d="M63 25H55H43H35L49 11L63 25Z" fill="white"/>
<path d="M31.06 30.439C31.581 30.71 32 31.089 32 31.5C32 32.33 30.33 33 29.5 33C28.67 33 28 32.33 28 31.5C28 30.67 28.67 30 29.5 30C29.92 30 30.54 30.17 31.06 30.439Z" fill="#65B590"/>
<path d="M63 25H55V53H63V25Z" fill="white"/>
<path d="M17 47.5098V52.9998H13V47.5098C13 48.3398 14.67 49.0098 15.5 49.0098C16.33 49.0098 17 48.3398 17 47.5098Z" fill="#DEF9EC"/>
<path d="M27 11L13 25H2L16 11H27Z" fill="#DEF9EC"/>
<path d="M32 31.5C32 31.09 31.58 30.71 31.06 30.439C30.54 30.17 29.92 30 29.5 30C28.67 30 28 30.67 28 31.5C28 32.33 28.67 33 29.5 33C30.33 33 32 32.33 32 31.5ZM35 25V53H28V47.51V41.5C28 42.33 28.67 43 29.5 43C30.33 43 32 42.33 32 41.5C32 41.09 31.58 40.71 31.06 40.439C30.54 40.17 29.92 40 29.5 40C28.67 40 28 40.67 28 41.5V37.51C28 36.68 27.33 36.01 26.5 36.01C26.08 36.01 25.46 36.18 24.94 36.45C24.419 36.72 24 37.09 24 37.51V25H35Z" fill="#DEF9EC"/>
<path d="M26.5 46.0098C27.33 46.0098 28 46.6798 28 47.5098C28 48.3398 27.33 49.0098 26.5 49.0098C25.67 49.0098 24 48.3398 24 47.5098C24 47.0898 24.42 46.7198 24.94 46.4498C25.46 46.1798 26.08 46.0098 26.5 46.0098Z" fill="#65B590"/>
<path d="M43 25H35V53H43V25Z" fill="white"/>
<path d="M31.06 40.439C31.581 40.71 32 41.089 32 41.5C32 42.33 30.33 43 29.5 43C28.67 43 28 42.33 28 41.5C28 40.67 28.67 40 29.5 40C29.92 40 30.54 40.17 31.06 40.439Z" fill="#65B590"/>
<path d="M49 11L35 25H24L38 11H49Z" fill="#DEF9EC"/>
<path d="M20.06 30.439C20.581 30.71 21 31.089 21 31.5C21 32.33 19.33 33 18.5 33C17.67 33 17 32.33 17 31.5C17 30.67 17.67 30 18.5 30C18.92 30 19.54 30.17 20.06 30.439Z" fill="#65B590"/>
<path d="M21 31.5C21 31.09 20.58 30.71 20.06 30.439C19.54 30.17 18.92 30 18.5 30C17.67 30 17 30.67 17 31.5C17 32.33 17.67 33 18.5 33C19.33 33 21 32.33 21 31.5ZM24 37.51V47.51V53H17V47.51V41.5C17 42.33 17.67 43 18.5 43C19.33 43 21 42.33 21 41.5C21 41.09 20.58 40.71 20.06 40.439C19.54 40.17 18.92 40 18.5 40C17.67 40 17 40.67 17 41.5V37.51C17 36.68 16.33 36.01 15.5 36.01C15.08 36.01 14.46 36.18 13.94 36.45C13.419 36.72 13 37.09 13 37.51V25H24V37.51Z" fill="#DEF9EC"/>
<path d="M17 41.4998V47.5098C17 46.6798 16.33 46.0098 15.5 46.0098C15.08 46.0098 14.46 46.1798 13.94 46.4498C13.419 46.7198 13 47.0898 13 47.5098V37.5098C13 38.3398 14.67 39.0098 15.5 39.0098C16.33 39.0098 17 38.3398 17 37.5098V41.4998Z" fill="#DEF9EC"/>
<path d="M62.9973 25.9993C62.7413 25.9993 62.4853 25.9012 62.2903 25.7062L48.2913 11.7072C47.9003 11.3162 47.9003 10.6842 48.2913 10.2932C48.6823 9.90225 49.3143 9.90225 49.7053 10.2932L63.7043 24.2922C64.0953 24.6832 64.0953 25.3152 63.7043 25.7062C63.5093 25.9012 63.2533 25.9993 62.9973 25.9993Z" fill="#008145"/>
<path d="M35.0002 25.9993C34.7442 25.9993 34.4882 25.9012 34.2932 25.7062C33.9022 25.3152 33.9022 24.6832 34.2932 24.2922L48.2922 10.2932C48.6832 9.90225 49.3153 9.90225 49.7062 10.2932C50.0972 10.6842 50.0972 11.3162 49.7062 11.7072L35.7072 25.7062C35.5122 25.9012 35.2562 25.9993 35.0002 25.9993ZM24.0002 25.9993C23.7442 25.9993 23.4883 25.9012 23.2933 25.7062C22.9023 25.3152 22.9023 24.6832 23.2933 24.2922L37.2922 10.2932C37.6832 9.90225 38.3153 9.90225 38.7062 10.2932C39.0972 10.6842 39.0972 11.3162 38.7062 11.7072L24.7073 25.7062C24.5123 25.9012 24.2563 25.9993 24.0002 25.9993ZM13.0003 25.9993C12.7443 25.9993 12.4882 25.9012 12.2933 25.7062C11.9023 25.3152 11.9023 24.6832 12.2933 24.2922L26.2922 10.2932C26.6833 9.90225 27.3153 9.90225 27.7063 10.2932C28.0973 10.6842 28.0973 11.3162 27.7063 11.7072L13.7073 25.7062C13.5123 25.9012 13.2563 25.9993 13.0003 25.9993ZM2.00025 25.9993C1.74425 25.9993 1.48825 25.9012 1.29325 25.7062C0.90225 25.3152 0.90225 24.6832 1.29325 24.2922L15.2923 10.2932C15.6833 9.90225 16.3153 9.90225 16.7063 10.2932C17.0973 10.6842 17.0973 11.3162 16.7063 11.7072L2.70725 25.7062C2.51225 25.9012 2.25625 25.9993 2.00025 25.9993Z" fill="#008145"/>
<path d="M35.001 54C34.448 54 34.001 53.553 34.001 53V24.999C34.001 24.446 34.448 23.999 35.001 23.999C35.554 23.999 36.001 24.446 36.001 24.999V53C36.001 53.553 35.554 54 35.001 54ZM62.999 54C62.446 54 61.999 53.553 61.999 53V24.999C61.999 24.446 62.446 23.999 62.999 23.999C63.552 23.999 63.999 24.446 63.999 24.999V53C63.999 53.553 63.552 54 62.999 54ZM49 12H16C15.447 12 15 11.553 15 11C15 10.447 15.447 10 16 10H49C49.553 10 50 10.447 50 11C50 11.553 49.553 12 49 12Z" fill="#008145"/>
<path d="M35 26H2C1.447 26 1 25.553 1 25C1 24.447 1.447 24 2 24H35C35.553 24 36 24.447 36 25C36 25.553 35.553 26 35 26Z" fill="#008145"/>
<path d="M2 54.001C1.447 54.001 1 53.554 1 53.001V25C1 24.447 1.447 24 2 24C2.553 24 3 24.447 3 25V53.001C3 53.554 2.553 54.001 2 54.001ZM13 54.001C12.447 54.001 12 53.554 12 53.001V25C12 24.447 12.447 24 13 24C13.553 24 14 24.447 14 25V53.001C14 53.554 13.553 54.001 13 54.001ZM24 54.001C23.447 54.001 23 53.554 23 53.001V25C23 24.447 23.447 24 24 24C24.553 24 25 24.447 25 25V53.001C25 53.554 24.553 54.001 24 54.001Z" fill="#008145"/>
<path d="M62.998 54H2C1.447 54 1 53.553 1 53C1 52.447 1.447 52 2 52H62.998C63.551 52 63.998 52.447 63.998 53C63.998 53.553 63.551 54 62.998 54Z" fill="#008145"/>
<path d="M55 54.001H43C42.447 54.001 42 53.554 42 53.001V25C42 24.447 42.447 24 43 24H55C55.553 24 56 24.447 56 25V53.001C56 53.554 55.553 54.001 55 54.001ZM44 52.001H54V26H44V52.001Z" fill="#008145"/>
<path d="M62.999 26H35.001C34.448 26 34.001 25.553 34.001 25C34.001 24.447 34.448 24 35.001 24H62.999C63.552 24 63.999 24.447 63.999 25C63.999 25.553 63.552 26 62.999 26ZM6.00195 54.001C5.44895 54.001 5.00195 53.554 5.00195 53.001V31.501C5.00195 30.948 5.44895 30.501 6.00195 30.501C6.55495 30.501 7.00195 30.948 7.00195 31.501V53.001C7.00195 53.554 6.55495 54.001 6.00195 54.001Z" fill="#008145"/>
<path d="M7.50195 34C6.12295 34 5.00195 32.879 5.00195 31.5C5.00195 30.121 6.12295 29 7.50195 29C8.68995 29 11.003 29.883 11.003 31.5C11.003 33.117 8.68995 34 7.50195 34ZM7.50195 31C7.22695 31 7.00195 31.225 7.00195 31.5C7.00195 31.775 7.22695 32 7.50195 32C7.90495 32 8.57895 31.729 8.88895 31.5C8.57895 31.271 7.90495 31 7.50195 31ZM7.50195 44C6.12295 44 5.00195 42.879 5.00195 41.5C5.00195 40.121 6.12295 39 7.50195 39C8.68995 39 11.003 39.883 11.003 41.5C11.003 43.117 8.68995 44 7.50195 44ZM7.50195 41C7.22695 41 7.00195 41.225 7.00195 41.5C7.00195 41.775 7.22695 42 7.50195 42C7.90495 42 8.57895 41.729 8.88895 41.5C8.57895 41.271 7.90495 41 7.50195 41Z" fill="#008145"/>
<path d="M4.501 40.006C3.313 40.006 1 39.123 1 37.506C1 35.889 3.313 35.006 4.501 35.006C5.88 35.006 7.001 36.127 7.001 37.506C7.001 38.885 5.88 40.006 4.501 40.006ZM3.114 37.506C3.424 37.735 4.097 38.006 4.501 38.006C4.776 38.006 5.001 37.781 5.001 37.506C5.001 37.231 4.776 37.006 4.501 37.006C4.098 37.006 3.424 37.277 3.114 37.506ZM4.501 50.006C3.313 50.006 1 49.123 1 47.506C1 45.889 3.313 45.006 4.501 45.006C5.88 45.006 7.001 46.127 7.001 47.506C7.001 48.885 5.88 50.006 4.501 50.006ZM3.114 47.506C3.424 47.735 4.097 48.006 4.501 48.006C4.776 48.006 5.001 47.781 5.001 47.506C5.001 47.231 4.776 47.006 4.501 47.006C4.098 47.006 3.424 47.277 3.114 47.506ZM16.999 54C16.446 54 15.999 53.553 15.999 53V31.5C15.999 30.947 16.446 30.5 16.999 30.5C17.552 30.5 17.999 30.947 17.999 31.5V53C17.999 53.553 17.552 54 16.999 54Z" fill="#008145"/>
<path d="M18.5 34C17.121 34 16 32.879 16 31.5C16 30.121 17.121 29 18.5 29C19.688 29 22.001 29.883 22.001 31.5C22.001 33.117 19.688 34 18.5 34ZM18.5 31C18.225 31 18 31.225 18 31.5C18 31.775 18.225 32 18.5 32C18.903 32 19.577 31.729 19.887 31.5C19.577 31.271 18.903 31 18.5 31ZM18.5 44C17.121 44 16 42.879 16 41.5C16 40.121 17.121 39 18.5 39C19.688 39 22.001 39.883 22.001 41.5C22.001 43.117 19.688 44 18.5 44ZM18.5 41C18.225 41 18 41.225 18 41.5C18 41.775 18.225 42 18.5 42C18.903 42 19.577 41.729 19.887 41.5C19.577 41.271 18.903 41 18.5 41Z" fill="#008145"/>
<path d="M15.499 40.006C14.311 40.006 11.998 39.123 11.998 37.506C11.998 35.889 14.311 35.006 15.499 35.006C16.878 35.006 17.999 36.127 17.999 37.506C17.999 38.885 16.878 40.006 15.499 40.006ZM14.112 37.506C14.422 37.735 15.095 38.006 15.499 38.006C15.774 38.006 15.999 37.781 15.999 37.506C15.999 37.231 15.774 37.006 15.499 37.006C15.096 37.006 14.422 37.277 14.112 37.506ZM15.499 50.006C14.311 50.006 11.998 49.123 11.998 47.506C11.998 45.889 14.311 45.006 15.499 45.006C16.878 45.006 17.999 46.127 17.999 47.506C17.999 48.885 16.878 50.006 15.499 50.006ZM14.112 47.506C14.422 47.735 15.095 48.006 15.499 48.006C15.774 48.006 15.999 47.781 15.999 47.506C15.999 47.231 15.774 47.006 15.499 47.006C15.096 47.006 14.422 47.277 14.112 47.506ZM27.997 54C27.444 54 26.997 53.553 26.997 53V31.5C26.997 30.947 27.444 30.5 27.997 30.5C28.55 30.5 28.997 30.947 28.997 31.5V53C28.997 53.553 28.55 54 27.997 54Z" fill="#008145"/>
<path d="M29.498 34C28.119 34 26.998 32.879 26.998 31.5C26.998 30.121 28.119 29 29.498 29C30.686 29 32.999 29.883 32.999 31.5C32.999 33.117 30.687 34 29.498 34ZM29.498 31C29.223 31 28.998 31.225 28.998 31.5C28.998 31.775 29.223 32 29.498 32C29.901 32 30.575 31.729 30.885 31.5C30.575 31.271 29.901 31 29.498 31ZM29.498 44C28.119 44 26.998 42.879 26.998 41.5C26.998 40.121 28.119 39 29.498 39C30.686 39 32.999 39.883 32.999 41.5C32.999 43.117 30.687 44 29.498 44ZM29.498 41C29.223 41 28.998 41.225 28.998 41.5C28.998 41.775 29.223 42 29.498 42C29.901 42 30.575 41.729 30.885 41.5C30.575 41.271 29.901 41 29.498 41Z" fill="#008145"/>
<path d="M26.4971 40.0059C25.3091 40.0059 22.9961 39.1229 22.9961 37.5059C22.9961 35.8889 25.3091 35.0059 26.4971 35.0059C27.8761 35.0059 28.9971 36.1269 28.9971 37.5059C28.9971 38.8849 27.8761 40.0059 26.4971 40.0059ZM25.1101 37.5059C25.4201 37.7349 26.0931 38.0059 26.4971 38.0059C26.7721 38.0059 26.9971 37.7809 26.9971 37.5059C26.9971 37.2309 26.7721 37.0059 26.4971 37.0059C26.0941 37.0059 25.4201 37.2769 25.1101 37.5059ZM26.4971 50.0059C25.3091 50.0059 22.9961 49.1229 22.9961 47.5059C22.9961 45.8889 25.3091 45.0059 26.4971 45.0059C27.8761 45.0059 28.9971 46.1269 28.9971 47.5059C28.9971 48.8849 27.8761 50.0059 26.4971 50.0059ZM25.1101 47.5059C25.4201 47.7349 26.0931 48.0059 26.4971 48.0059C26.7721 48.0059 26.9971 47.7809 26.9971 47.5059C26.9971 47.2309 26.7721 47.0059 26.4971 47.0059C26.0941 47.0059 25.4201 47.2769 25.1101 47.5059ZM45.9991 40.9999C45.4461 40.9999 44.9991 40.5529 44.9991 39.9999V37.9999C44.9991 37.4469 45.4461 36.9999 45.9991 36.9999C46.5521 36.9999 46.9991 37.4469 46.9991 37.9999V39.9999C46.9991 40.5529 46.5521 40.9999 45.9991 40.9999Z" fill="#008145"/>
</svg>
