<svg width="65" height="64" viewBox="0 0 65 64" fill="none" xmlns="http://www.w3.org/2000/svg">
<g clip-path="url(#clip0_4018_420)">
<path d="M29.91 39.42C29.13 40.2 27.87 40.2 27.08 39.42C26.3 38.63 26.3 37.37 27.08 36.59C27.87 35.8 29.84 35.1 30.62 35.88C31.4 36.66 30.7 38.63 29.91 39.42ZM19.03 24H14C12.62 24 11.5 22.88 11.5 21.5C11.5 20.12 12.62 19 14 19H11C9.62 19 8.5 17.88 8.5 16.5C8.5 15.12 9.62 14 11 14H14C12.62 14 11.5 12.88 11.5 11.5C11.5 10.12 12.62 9 14 9H32.51L29.1 5.12L29.01 5C28.691 4.58 28.51 4.06 28.51 3.5C28.51 2.12 29.62 1 31.01 1C31.441 1 31.861 1.11 32.22 1.32L32.231 1.33L42.951 9.42C44.371 10.39 45.611 11.59 46.511 13.01H50.5V25H46.51C45.111 27.39 42.5 29 39.51 29H19.03C17.639 29 16.53 27.88 16.53 26.5C16.53 25.12 17.64 24 19.03 24Z" fill="white"/>
<path d="M53.5 12V26.01H53.49H50.5V25V13.01V12H53.49H53.5Z" fill="#DEF9EC"/>
<path d="M63.5 11V27H53.5V26.01V12V11H63.5Z" fill="#1A6541"/>
<path d="M39.91 38.5892C40.69 39.3692 40.69 40.6292 39.91 41.4192C39.13 42.1992 37.87 42.1992 37.08 41.4192C36.3 40.6292 35.6 38.6592 36.38 37.8792C37.16 37.0992 39.13 37.8092 39.91 38.5892ZM32.5 44.9992C33.6 44.9992 34.5 46.8992 34.5 47.9992C34.5 49.1092 33.6 49.9992 32.5 49.9992C31.39 49.9992 30.5 49.1092 30.5 47.9992C30.5 46.8992 31.39 44.9992 32.5 44.9992Z" fill="white"/>
<path d="M63.5 39V63H1.5V39H16.49L32.5 55L48.51 39H63.5Z" fill="#DEF9EC"/>
<path d="M16.493 40H1.5C0.947 40 0.5 39.553 0.5 39C0.5 38.447 0.947 38 1.5 38H16.493C17.046 38 17.493 38.447 17.493 39C17.493 39.553 17.046 40 16.493 40ZM63.5 40H48.507C47.954 40 47.507 39.553 47.507 39C47.507 38.447 47.954 38 48.507 38H63.5C64.053 38 64.5 38.447 64.5 39C64.5 39.553 64.053 40 63.5 40Z" fill="#008145"/>
<path d="M32.5024 56.0043C32.2464 56.0043 31.9904 55.9062 31.7954 55.7112L15.7854 39.7073C15.3944 39.3163 15.3944 38.6842 15.7854 38.2932C16.1764 37.9022 16.8084 37.9022 17.1994 38.2932L33.2094 54.2973C33.6004 54.6883 33.6004 55.3202 33.2094 55.7112C33.0144 55.9062 32.7584 56.0043 32.5024 56.0043Z" fill="#008145"/>
<path d="M32.497 56.004C32.241 56.004 31.985 55.906 31.79 55.711C31.399 55.32 31.399 54.688 31.79 54.297L47.8 38.293C48.191 37.902 48.823 37.902 49.214 38.293C49.605 38.684 49.605 39.316 49.214 39.707L33.204 55.711C33.009 55.906 32.753 56.004 32.497 56.004ZM63.5 64H1.5C0.947 64 0.5 63.553 0.5 63C0.5 62.447 0.947 62 1.5 62H63.5C64.053 62 64.5 62.447 64.5 63C64.5 63.553 64.053 64 63.5 64ZM19.025 30C17.095 30 15.526 28.43 15.526 26.5C15.526 24.57 17.095 23 19.025 23C19.578 23 20.025 23.447 20.025 24C20.025 24.553 19.578 25 19.025 25C18.199 25 17.526 25.673 17.526 26.5C17.526 27.327 18.199 28 19.025 28C19.578 28 20.025 28.447 20.025 29C20.025 29.553 19.578 30 19.025 30ZM14.004 25C12.074 25 10.504 23.43 10.504 21.5C10.504 19.57 12.074 18 14.004 18C14.557 18 15.004 18.447 15.004 19C15.004 19.553 14.557 20 14.004 20C13.177 20 12.504 20.673 12.504 21.5C12.504 22.327 13.177 23 14.004 23C14.557 23 15.004 23.447 15.004 24C15.004 24.553 14.557 25 14.004 25ZM14.004 15C12.074 15 10.504 13.43 10.504 11.5C10.504 9.57 12.074 8 14.004 8C14.557 8 15.004 8.447 15.004 9C15.004 9.553 14.557 10 14.004 10C13.177 10 12.504 10.673 12.504 11.5C12.504 12.327 13.177 13 14.004 13C14.557 13 15.004 13.447 15.004 14C15.004 14.553 14.557 15 14.004 15Z" fill="#008145"/>
<path d="M11.0039 20C9.07391 20 7.50391 18.43 7.50391 16.5C7.50391 14.57 9.07391 13 11.0039 13C11.5569 13 12.0039 13.447 12.0039 14C12.0039 14.553 11.5569 15 11.0039 15C10.1769 15 9.50391 15.673 9.50391 16.5C9.50391 17.327 10.1769 18 11.0039 18C11.5569 18 12.0039 18.447 12.0039 19C12.0039 19.553 11.5569 20 11.0039 20ZM39.5059 30C38.9529 30 38.5059 29.553 38.5059 29C38.5059 28.447 38.9529 28 39.5059 28C42.0289 28 44.3819 26.657 45.6449 24.495C45.9229 24.02 46.5369 23.858 47.0119 24.137C47.4899 24.415 47.6499 25.028 47.3709 25.505C45.7509 28.277 42.7369 30 39.5059 30Z" fill="#008145"/>
<path d="M39.5059 30H19.0259C18.4729 30 18.0259 29.553 18.0259 29C18.0259 28.447 18.4729 28 19.0259 28H39.5059C40.0589 28 40.5059 28.447 40.5059 29C40.5059 29.553 40.0589 30 39.5059 30ZM27.5049 25H14.0039C13.4509 25 13.0039 24.553 13.0039 24C13.0039 23.447 13.4509 23 14.0039 23H27.5049C28.0579 23 28.5049 23.447 28.5049 24C28.5049 24.553 28.0579 25 27.5049 25ZM27.5049 20H11.0039C10.4509 20 10.0039 19.553 10.0039 19C10.0039 18.447 10.4509 18 11.0039 18H27.5049C28.0579 18 28.5049 18.447 28.5049 19C28.5049 19.553 28.0579 20 27.5049 20ZM27.5049 15H11.0039C10.4509 15 10.0039 14.553 10.0039 14C10.0039 13.447 10.4509 13 11.0039 13H27.5049C28.0579 13 28.5049 13.447 28.5049 14C28.5049 14.553 28.0579 15 27.5049 15ZM32.5079 10H14.0039C13.4509 10 13.0039 9.553 13.0039 9C13.0039 8.447 13.4509 8 14.0039 8H32.5079C33.0609 8 33.5079 8.447 33.5079 9C33.5079 9.553 33.0609 10 32.5079 10ZM29.0079 6C28.7039 6 28.4039 5.862 28.2079 5.602C27.7499 4.993 27.5069 4.267 27.5059 3.502C27.5059 1.57 29.0759 0 31.0059 0C31.6519 0 32.2839 0.177 32.8309 0.513C33.3029 0.801 33.4509 1.416 33.1619 1.887C32.8739 2.359 32.2569 2.51 31.7879 2.218C31.5549 2.075 31.2839 2 31.0059 2C30.1789 2 29.5059 2.673 29.5059 3.5C29.5069 3.827 29.6099 4.139 29.8059 4.398C30.1379 4.839 30.0499 5.466 29.6089 5.798C29.4279 5.935 29.2169 6 29.0079 6Z" fill="#008145"/>
<path d="M32.5088 9.99958C32.2318 9.99958 31.9548 9.88458 31.7568 9.65858L28.3478 5.77358C27.9838 5.35858 28.0248 4.72658 28.4408 4.36258C28.8548 4.00058 29.4868 4.03958 29.8518 4.45558L33.2608 8.34058C33.6248 8.75558 33.5838 9.38758 33.1678 9.75158C32.9788 9.91758 32.7428 9.99958 32.5088 9.99958ZM46.5158 14.0116C46.1858 14.0116 45.8618 13.8476 45.6708 13.5486C44.8788 12.3026 43.7748 11.1936 42.3898 10.2496C41.9328 9.93858 41.8148 9.31658 42.1258 8.86058C42.4368 8.40458 43.0598 8.28358 43.5148 8.59658C45.1258 9.69358 46.4188 10.9976 47.3588 12.4736C47.6558 12.9396 47.5178 13.5576 47.0518 13.8546C46.8848 13.9606 46.6988 14.0116 46.5158 14.0116Z" fill="#008145"/>
<path d="M42.95 10.4249C42.74 10.4249 42.528 10.3599 42.348 10.2229L31.62 2.11489C31.179 1.78189 31.092 1.15489 31.425 0.714893C31.756 0.272893 32.386 0.184893 32.825 0.519893L43.554 8.62689C43.995 8.95989 44.082 9.58689 43.749 10.0269C43.553 10.2879 43.253 10.4249 42.95 10.4249Z" fill="#008145"/>
<path d="M50.5057 14.0117H46.5137C45.9607 14.0117 45.5137 13.5647 45.5137 13.0117C45.5137 12.4587 45.9607 12.0117 46.5137 12.0117H50.5057C51.0587 12.0117 51.5057 12.4587 51.5057 13.0117C51.5057 13.5647 51.0587 14.0117 50.5057 14.0117Z" fill="#008145"/>
<path d="M50.5058 26H46.5078C45.9548 26 45.5078 25.553 45.5078 25C45.5078 24.447 45.9548 24 46.5078 24H50.5058C51.0588 24 51.5058 24.447 51.5058 25C51.5058 25.553 51.0588 26 50.5058 26Z" fill="#008145"/>
<path d="M53.487 27.014H50.498C49.945 27.014 49.498 26.567 49.498 26.014V12C49.498 11.447 49.945 11 50.498 11H53.487C54.04 11 54.487 11.447 54.487 12C54.487 12.553 54.04 13 53.487 13H51.498V25.014H53.487C54.04 25.014 54.487 25.461 54.487 26.014C54.487 26.567 54.04 27.014 53.487 27.014Z" fill="#008145"/>
<path d="M63.499 28H53.5C52.947 28 52.5 27.553 52.5 27V11C52.5 10.447 52.947 10 53.5 10H63.499C64.052 10 64.499 10.447 64.499 11C64.499 11.553 64.052 12 63.499 12H54.5V26H63.499C64.052 26 64.499 26.447 64.499 27C64.499 27.553 64.052 28 63.499 28Z" fill="#008145"/>
<path d="M32.4961 51.004C30.8421 51.004 29.4961 49.658 29.4961 48.004C29.4961 46.411 30.6921 44.002 32.4961 44.002C34.3001 44.002 35.4961 46.411 35.4961 48.004C35.4961 49.658 34.1501 51.004 32.4961 51.004ZM32.4931 46.002C32.1761 46.046 31.4961 47.184 31.4961 48.004C31.4961 48.556 31.9441 49.004 32.4961 49.004C33.0481 49.004 33.4961 48.556 33.4961 48.004C33.4961 47.184 32.8161 46.046 32.4931 46.002Z" fill="#008145"/>
<path d="M38.4986 43.002C37.6976 43.002 36.9436 42.689 36.3776 42.123C35.2516 40.997 34.3956 38.449 35.6706 37.174C36.0836 36.76 36.6696 36.541 37.3656 36.541C38.4746 36.541 39.8436 37.104 40.6206 37.88C41.7886 39.051 41.7886 40.953 40.6216 42.123C40.0546 42.689 39.3006 43.002 38.4986 43.002ZM37.3656 38.541C37.1866 38.541 37.0986 38.577 37.0826 38.59C36.8886 38.845 37.2116 40.129 37.7916 40.709C38.1706 41.086 38.8276 41.086 39.2066 40.709C39.5956 40.319 39.5956 39.685 39.2056 39.295C38.8506 38.939 37.9876 38.541 37.3656 38.541Z" fill="#008145"/>
<path d="M28.4984 41.0011C27.6974 41.0011 26.9444 40.6891 26.3784 40.1241C25.2074 38.9531 25.2074 37.0491 26.3774 35.8791C27.1534 35.1031 28.5224 34.5391 29.6314 34.5391C30.3274 34.5391 30.9134 34.7581 31.3274 35.1721C32.6014 36.4461 31.7454 38.9961 30.6204 40.1231C30.0524 40.6891 29.2994 41.0011 28.4984 41.0011ZM29.6314 36.5391C29.0104 36.5391 28.1474 36.9371 27.7914 37.2931C27.4004 37.6841 27.4004 38.3181 27.7914 38.7091C28.1684 39.0841 28.8274 39.0851 29.2064 38.7081C29.7854 38.1281 30.1094 36.8431 29.9114 36.5841C29.8984 36.5751 29.8114 36.5391 29.6314 36.5391Z" fill="#008145"/>
<path d="M4.53039 60C3.97739 60 3.52539 59.553 3.52539 59C3.52539 58.447 3.96739 58 4.51939 58H4.53039C5.08239 58 5.53039 58.447 5.53039 59C5.53039 59.553 5.08239 60 4.53039 60ZM4.53039 52C3.97739 52 3.52539 51.553 3.52539 51C3.52539 50.447 3.96739 50 4.51939 50H4.53039C5.08239 50 5.53039 50.447 5.53039 51C5.53039 51.553 5.08239 52 4.53039 52ZM8.53039 56C7.97739 56 7.52539 55.553 7.52539 55C7.52539 54.447 7.96739 54 8.51939 54H8.53039C9.08239 54 9.53039 54.447 9.53039 55C9.53039 55.553 9.08239 56 8.53039 56ZM12.5304 60C11.9774 60 11.5254 59.553 11.5254 59C11.5254 58.447 11.9674 58 12.5194 58H12.5304C13.0824 58 13.5304 58.447 13.5304 59C13.5304 59.553 13.0824 60 12.5304 60ZM4.53039 44C3.97739 44 3.52539 43.553 3.52539 43C3.52539 42.447 3.96739 42 4.51939 42H4.53039C5.08239 42 5.53039 42.447 5.53039 43C5.53039 43.553 5.08239 44 4.53039 44ZM8.53039 48C7.97739 48 7.52539 47.553 7.52539 47C7.52539 46.447 7.96739 46 8.51939 46H8.53039C9.08239 46 9.53039 46.447 9.53039 47C9.53039 47.553 9.08239 48 8.53039 48ZM12.5304 52C11.9774 52 11.5254 51.553 11.5254 51C11.5254 50.447 11.9674 50 12.5194 50H12.5304C13.0824 50 13.5304 50.447 13.5304 51C13.5304 51.553 13.0824 52 12.5304 52ZM16.5304 56C15.9774 56 15.5254 55.553 15.5254 55C15.5254 54.447 15.9674 54 16.5194 54H16.5304C17.0824 54 17.5304 54.447 17.5304 55C17.5304 55.553 17.0824 56 16.5304 56ZM20.5304 60C19.9774 60 19.5254 59.553 19.5254 59C19.5254 58.447 19.9674 58 20.5194 58H20.5304C21.0824 58 21.5304 58.447 21.5304 59C21.5304 59.553 21.0824 60 20.5304 60ZM12.5304 44C11.9774 44 11.5254 43.553 11.5254 43C11.5254 42.447 11.9674 42 12.5194 42H12.5304C13.0824 42 13.5304 42.447 13.5304 43C13.5304 43.553 13.0824 44 12.5304 44ZM16.5304 48C15.9774 48 15.5254 47.553 15.5254 47C15.5254 46.447 15.9674 46 16.5194 46H16.5304C17.0824 46 17.5304 46.447 17.5304 47C17.5304 47.553 17.0824 48 16.5304 48ZM20.5304 52C19.9774 52 19.5254 51.553 19.5254 51C19.5254 50.447 19.9674 50 20.5194 50H20.5304C21.0824 50 21.5304 50.447 21.5304 51C21.5304 51.553 21.0824 52 20.5304 52ZM24.5304 56C23.9774 56 23.5254 55.553 23.5254 55C23.5254 54.447 23.9674 54 24.5194 54H24.5304C25.0824 54 25.5304 54.447 25.5304 55C25.5304 55.553 25.0824 56 24.5304 56ZM28.5304 60C27.9774 60 27.5254 59.553 27.5254 59C27.5254 58.447 27.9674 58 28.5194 58H28.5304C29.0824 58 29.5304 58.447 29.5304 59C29.5304 59.553 29.0824 60 28.5304 60ZM36.5304 60C35.9774 60 35.5254 59.553 35.5254 59C35.5254 58.447 35.9674 58 36.5194 58H36.5304C37.0824 58 37.5304 58.447 37.5304 59C37.5304 59.553 37.0824 60 36.5304 60ZM40.5304 56C39.9774 56 39.5254 55.553 39.5254 55C39.5254 54.447 39.9674 54 40.5194 54H40.5304C41.0824 54 41.5304 54.447 41.5304 55C41.5304 55.553 41.0824 56 40.5304 56ZM44.5304 60C43.9774 60 43.5254 59.553 43.5254 59C43.5254 58.447 43.9674 58 44.5194 58H44.5304C45.0824 58 45.5304 58.447 45.5304 59C45.5304 59.553 45.0824 60 44.5304 60ZM44.5304 52C43.9774 52 43.5254 51.553 43.5254 51C43.5254 50.447 43.9674 50 44.5194 50H44.5304C45.0824 50 45.5304 50.447 45.5304 51C45.5304 51.553 45.0824 52 44.5304 52ZM48.5304 56C47.9774 56 47.5254 55.553 47.5254 55C47.5254 54.447 47.9674 54 48.5194 54H48.5304C49.0824 54 49.5304 54.447 49.5304 55C49.5304 55.553 49.0824 56 48.5304 56ZM52.5304 60C51.9774 60 51.5254 59.553 51.5254 59C51.5254 58.447 51.9674 58 52.5194 58H52.5304C53.0824 58 53.5304 58.447 53.5304 59C53.5304 59.553 53.0824 60 52.5304 60ZM48.5304 48C47.9774 48 47.5254 47.553 47.5254 47C47.5254 46.447 47.9674 46 48.5194 46H48.5304C49.0824 46 49.5304 46.447 49.5304 47C49.5304 47.553 49.0824 48 48.5304 48ZM52.5304 52C51.9774 52 51.5254 51.553 51.5254 51C51.5254 50.447 51.9674 50 52.5194 50H52.5304C53.0824 50 53.5304 50.447 53.5304 51C53.5304 51.553 53.0824 52 52.5304 52ZM56.5304 56C55.9774 56 55.5254 55.553 55.5254 55C55.5254 54.447 55.9674 54 56.5194 54H56.5304C57.0824 54 57.5304 54.447 57.5304 55C57.5304 55.553 57.0824 56 56.5304 56ZM60.5304 60C59.9774 60 59.5254 59.553 59.5254 59C59.5254 58.447 59.9674 58 60.5194 58H60.5304C61.0824 58 61.5304 58.447 61.5304 59C61.5304 59.553 61.0824 60 60.5304 60ZM52.5304 44C51.9774 44 51.5254 43.553 51.5254 43C51.5254 42.447 51.9674 42 52.5194 42H52.5304C53.0824 42 53.5304 42.447 53.5304 43C53.5304 43.553 53.0824 44 52.5304 44ZM56.5304 48C55.9774 48 55.5254 47.553 55.5254 47C55.5254 46.447 55.9674 46 56.5194 46H56.5304C57.0824 46 57.5304 46.447 57.5304 47C57.5304 47.553 57.0824 48 56.5304 48ZM60.5304 52C59.9774 52 59.5254 51.553 59.5254 51C59.5254 50.447 59.9674 50 60.5194 50H60.5304C61.0824 50 61.5304 50.447 61.5304 51C61.5304 51.553 61.0824 52 60.5304 52ZM60.5304 44C59.9774 44 59.5254 43.553 59.5254 43C59.5254 42.447 59.9674 42 60.5194 42H60.5304C61.0824 42 61.5304 42.447 61.5304 43C61.5304 43.553 61.0824 44 60.5304 44Z" fill="#008145"/>
</g>
<defs>
<clipPath id="clip0_4018_420">
<rect width="64" height="64" fill="white" transform="translate(0.5)"/>
</clipPath>
</defs>
</svg>
