<svg width="61" height="60" viewBox="0 0 61 60" fill="none" xmlns="http://www.w3.org/2000/svg">
<path d="M33.5 12H32.5H28.5H26.64H24.5V14V17H26.22H27.5V20L28.5 22H30.5H32.5L33.5 20V17.89V17H34.45H36.5V14V12H34.17H33.5Z" fill="#DEF9EC"/>
<path d="M7.5 45H5.5C5.5 46.8565 6.2375 48.637 7.55025 49.9497C8.86301 51.2625 10.6435 52 12.5 52H14.5C14.5 50.1435 13.7625 48.363 12.4497 47.0503C11.137 45.7375 9.35652 45 7.5 45ZM14.5 52H16.5C18.3565 52 20.137 51.2625 21.4497 49.9497C22.7625 48.637 23.5 46.8565 23.5 45H21.5C19.6435 45 17.863 45.7375 16.5503 47.0503C15.2375 48.363 14.5 50.1435 14.5 52ZM53.5 45C51.6435 45 49.863 45.7375 48.5503 47.0503C47.2375 48.363 46.5 50.1435 46.5 52H48.5C50.3565 52 52.137 51.2625 53.4497 49.9497C54.7625 48.637 55.5 46.8565 55.5 45H53.5ZM39.5 45H37.5C37.5 46.8565 38.2375 48.637 39.5503 49.9497C40.863 51.2625 42.6435 52 44.5 52H46.5C46.5 50.1435 45.7625 48.363 44.4497 47.0503C43.137 45.7375 41.3565 45 39.5 45Z" fill="#DEF9EC"/>
<path d="M60.5 0H0.5V2H60.5V0Z" fill="#008145"/>
<path d="M31.5 5V11H29.5V5C29.5 4.73478 29.3946 4.48043 29.2071 4.29289C29.0196 4.10536 28.7652 4 28.5 4H0.5V6H27.5V11H24.5C24.2348 11 23.9804 11.1054 23.7929 11.2929C23.6054 11.4804 23.5 11.7348 23.5 12V13H22.5V15H23.5V17C23.5 17.2652 23.6054 17.5196 23.7929 17.7071C23.9804 17.8946 24.2348 18 24.5 18H26.5V20C26.4999 20.1551 26.5358 20.3082 26.605 20.447L27.605 22.447C27.6881 22.6132 27.8158 22.753 27.9739 22.8507C28.132 22.9484 28.3142 23.0001 28.5 23H29.5V24H31.5V23H32.5C32.6867 23.001 32.8699 22.9498 33.029 22.852C33.188 22.7543 33.3166 22.614 33.4 22.447L34.4 20.447C34.4675 20.3077 34.5017 20.1547 34.5 20V18H36.5C36.7652 18 37.0196 17.8946 37.2071 17.7071C37.3946 17.5196 37.5 17.2652 37.5 17V15H38.5V13H37.5V12C37.5 11.7348 37.3946 11.4804 37.2071 11.2929C37.0196 11.1054 36.7652 11 36.5 11H33.5V6H60.5V4H32.5C32.2348 4 31.9804 4.10536 31.7929 4.29289C31.6054 4.48043 31.5 4.73478 31.5 5ZM32.5 19.764L31.882 21H29.118L28.5 19.764V18H32.5V19.764ZM34.5 15V13H35.5V16H28.5V14H26.5V16H25.5V13H32.5V15H34.5ZM47.5 53H48.5C50.621 52.9976 52.6544 52.154 54.1542 50.6542C55.654 49.1544 56.4976 47.121 56.5 45C56.5 44.7348 56.3946 44.4804 56.2071 44.2929C56.0196 44.1054 55.7652 44 55.5 44H53.5C52.0701 44.0009 50.6665 44.385 49.4354 45.1124C48.2043 45.8398 47.1907 46.8839 46.5 48.136C45.8093 46.8839 44.7957 45.8398 43.5646 45.1124C42.3335 44.385 40.9299 44.0009 39.5 44H37.5C37.2348 44 36.9804 44.1054 36.7929 44.2929C36.6054 44.4804 36.5 44.7348 36.5 45C36.5024 47.121 37.346 49.1544 38.8458 50.6542C40.3456 52.154 42.379 52.9976 44.5 53H45.5V58H15.5V53H16.5C18.621 52.9976 20.6544 52.154 22.1542 50.6542C23.654 49.1544 24.4976 47.121 24.5 45C24.5 44.7348 24.3946 44.4804 24.2071 44.2929C24.0196 44.1054 23.7652 44 23.5 44H21.5C20.0701 44.0009 18.6665 44.385 17.4354 45.1124C16.2043 45.8398 15.1907 46.8839 14.5 48.136C13.8093 46.8839 12.7957 45.8398 11.5646 45.1124C10.3335 44.385 8.92994 44.0009 7.5 44H5.5C5.23478 44 4.98043 44.1054 4.79289 44.2929C4.60536 44.4804 4.5 44.7348 4.5 45C4.50238 47.121 5.346 49.1544 6.84578 50.6542C8.34555 52.154 10.379 52.9976 12.5 53H13.5V58H0.5V60H60.5V58H47.5V53ZM53.5 46H54.417C54.1788 47.3974 53.4543 48.6656 52.3716 49.5805C51.2888 50.4955 49.9175 50.9982 48.5 51H47.583C47.8212 49.6026 48.5457 48.3344 49.6284 47.4195C50.7112 46.5045 52.0825 46.0018 53.5 46ZM44.5 51C43.0825 50.9982 41.7112 50.4955 40.6284 49.5805C39.5457 48.6656 38.8212 47.3974 38.583 46H39.5C40.9175 46.0018 42.2888 46.5045 43.3716 47.4195C44.4543 48.3344 45.1788 49.6026 45.417 51H44.5ZM21.5 46H22.417C22.1788 47.3974 21.4543 48.6656 20.3716 49.5805C19.2888 50.4955 17.9175 50.9982 16.5 51H15.583C15.8212 49.6026 16.5457 48.3344 17.6284 47.4195C18.7112 46.5045 20.0825 46.0018 21.5 46ZM12.5 51C11.0825 50.9982 9.71117 50.4955 8.62844 49.5805C7.54571 48.6656 6.82122 47.3974 6.583 46H7.5C8.91754 46.0018 10.2888 46.5045 11.3716 47.4195C12.4543 48.3344 13.1788 49.6026 13.417 51H12.5Z" fill="#008145"/>
<path d="M31.5 26H29.5V28H31.5V26Z" fill="#008145"/>
<path d="M31.5 30H29.5V32H31.5V30Z" fill="#008145"/>
<path d="M31.5 34H29.5V36H31.5V34Z" fill="#008145"/>
<path d="M31.5 38H29.5V40H31.5V38Z" fill="#008145"/>
<path d="M39.6916 21.7772L38.2773 23.1914L39.6916 24.6056L41.1058 23.1914L39.6916 21.7772Z" fill="#008145"/>
<path d="M42.5216 24.6053L41.1074 26.0195L42.5216 27.4337L43.9358 26.0195L42.5216 24.6053Z" fill="#008145"/>
<path d="M45.3498 27.4373L43.9355 28.8516L45.3498 30.2658L46.764 28.8516L45.3498 27.4373Z" fill="#008145"/>
<path d="M48.1779 30.2635L46.7637 31.6777L48.1779 33.0919L49.5921 31.6777L48.1779 30.2635Z" fill="#008145"/>
<path d="M44.5 13H42.5V15H44.5V13Z" fill="#008145"/>
<path d="M48.5 13H46.5V15H48.5V13Z" fill="#008145"/>
<path d="M52.5 13H50.5V15H52.5V13Z" fill="#008145"/>
<path d="M56.5 13H54.5V15H56.5V13Z" fill="#008145"/>
<path d="M21.3068 21.7772L19.8926 23.1914L21.3068 24.6056L22.721 23.1914L21.3068 21.7772Z" fill="#008145"/>
<path d="M18.4806 24.6073L17.0664 26.0215L18.4806 27.4357L19.8948 26.0215L18.4806 24.6073Z" fill="#008145"/>
<path d="M15.6505 27.4354L14.2363 28.8496L15.6505 30.2638L17.0648 28.8496L15.6505 27.4354Z" fill="#008145"/>
<path d="M12.8224 30.2635L11.4082 31.6777L12.8224 33.0919L14.2366 31.6777L12.8224 30.2635Z" fill="#008145"/>
<path d="M18.5 13H16.5V15H18.5V13Z" fill="#008145"/>
<path d="M14.5 13H12.5V15H14.5V13Z" fill="#008145"/>
<path d="M10.5 13H8.5V15H10.5V13Z" fill="#008145"/>
<path d="M6.5 13H4.5V15H6.5V13Z" fill="#008145"/>
</svg>
