<svg width="39" height="40" viewBox="0 0 39 40" fill="none" xmlns="http://www.w3.org/2000/svg">
<rect y="0.5" width="39" height="39" rx="19.5" fill="black"/>
<g clip-path="url(#clip0_4062_1758)">
<path d="M28.1884 10.7204L11.6725 17.2047C11.3583 17.3281 11.3469 17.7686 11.6542 17.908L15.3054 19.5649C15.4043 19.6098 15.4794 19.6946 15.512 19.7982L17.0785 24.7835C17.1576 25.0351 17.4619 25.1328 17.6726 24.974L20.3993 22.9197C20.5295 22.8216 20.7076 22.817 20.8428 22.9082L25.4158 25.9933C25.6439 26.1472 25.955 26.0166 26.005 25.7461L28.7035 11.1453C28.758 10.8506 28.4673 10.6109 28.1884 10.7204ZM18.1802 20.272L17.6875 23.0728L16.4156 19.0625L25.1352 13.6505L18.1802 20.272ZM13.9226 21.0034C13.782 20.8628 13.5542 20.8628 13.4136 21.0034L11.3965 23.0203C11.2559 23.161 11.2559 23.3888 11.3965 23.5294C11.5371 23.67 11.7649 23.67 11.9056 23.5294L13.9226 21.5125C14.0632 21.3718 14.0632 21.144 13.9226 21.0034ZM14.9578 25.3835L12.9409 27.4004C12.8003 27.5411 12.8003 27.7689 12.9409 27.9095C13.0815 28.0501 13.3093 28.0501 13.45 27.9095L15.4669 25.8926C15.6075 25.752 15.6075 25.5242 15.4669 25.3835C15.3262 25.2429 15.0984 25.2429 14.9578 25.3835Z" fill="white"/>
<path d="M20.8237 25.3828L18.8067 27.3997C18.666 27.5403 18.666 27.7682 18.8067 27.9088C18.9473 28.0494 19.1751 28.0494 19.3157 27.9088L21.3328 25.8918C21.4734 25.7512 21.4734 25.5234 21.3328 25.3828C21.1922 25.2422 20.9644 25.2422 20.8237 25.3828Z" fill="white"/>
<path d="M28.1864 10.7204L11.6705 17.2047C11.3563 17.3281 11.3449 17.7686 11.6523 17.908L15.3035 19.5649C15.4024 19.6098 15.4775 19.6946 15.51 19.7982L17.0765 24.7835C17.1556 25.0351 17.46 25.1328 17.6707 24.974L20.3974 22.9197C20.5276 22.8216 20.7057 22.817 20.8408 22.9082L25.4139 25.9933C25.642 26.1472 25.953 26.0166 26.003 25.7461L28.7016 11.1453C28.756 10.8506 28.4654 10.6109 28.1864 10.7204ZM18.1782 20.272L17.6855 23.0728L16.4137 19.0625L25.1332 13.6505L18.1782 20.272ZM13.9207 21.0034C13.7801 20.8628 13.5523 20.8628 13.4116 21.0034L11.3945 23.0203C11.2539 23.161 11.2539 23.3888 11.3945 23.5294C11.5351 23.67 11.7629 23.67 11.9036 23.5294L13.9207 21.5125C14.0613 21.3718 14.0613 21.144 13.9207 21.0034ZM14.9559 25.3835L12.939 27.4004C12.7983 27.5411 12.7983 27.7689 12.939 27.9095C13.0796 28.0501 13.3074 28.0501 13.448 27.9095L15.4649 25.8926C15.6056 25.752 15.6056 25.5242 15.4649 25.3835C15.3243 25.2429 15.0965 25.2429 14.9559 25.3835Z" fill="white"/>
<path d="M20.8218 25.3828L18.8047 27.3997C18.6641 27.5403 18.6641 27.7682 18.8047 27.9088C18.9453 28.0494 19.1731 28.0494 19.3137 27.9088L21.3309 25.8918C21.4715 25.7512 21.4715 25.5234 21.3309 25.3828C21.1902 25.2422 20.9624 25.2422 20.8218 25.3828Z" fill="white"/>
</g>
<defs>
<clipPath id="clip0_4062_1758">
<rect width="18" height="18" fill="white" transform="translate(11 10.3535)"/>
</clipPath>
</defs>
</svg>
