<svg width="56" height="56" viewBox="0 0 56 56" fill="none" xmlns="http://www.w3.org/2000/svg">
<rect x="1" y="1" width="54" height="54" rx="19" stroke="#008145" stroke-width="2"/>
<path d="M27.9993 14.666C20.6527 14.666 14.666 20.6527 14.666 27.9993C14.666 35.346 20.6527 41.3327 27.9993 41.3327C35.346 41.3327 41.3327 35.346 41.3327 27.9993C41.3327 20.6527 35.346 14.666 27.9993 14.666ZM34.3727 24.9327L26.8127 32.4927C26.626 32.6793 26.3727 32.786 26.106 32.786C25.8393 32.786 25.586 32.6793 25.3993 32.4927L21.626 28.7193C21.2393 28.3327 21.2393 27.6927 21.626 27.306C22.0127 26.9193 22.6527 26.9193 23.0393 27.306L26.106 30.3727L32.9594 23.5194C33.346 23.1327 33.986 23.1327 34.3727 23.5194C34.7593 23.906 34.7593 24.5327 34.3727 24.9327Z" fill="#008145"/>
</svg>
